<?xml version="1.0" encoding="UTF-8" standalone="no"?>
<!-- Created with Inkscape (http://www.inkscape.org/) -->

<svg
   xmlns:dc="http://purl.org/dc/elements/1.1/"
   xmlns:cc="http://creativecommons.org/ns#"
   xmlns:rdf="http://www.w3.org/1999/02/22-rdf-syntax-ns#"
   xmlns:svg="http://www.w3.org/2000/svg"
   xmlns="http://www.w3.org/2000/svg"
   xmlns:sodipodi="http://sodipodi.sourceforge.net/DTD/sodipodi-0.dtd"
   xmlns:inkscape="http://www.inkscape.org/namespaces/inkscape"
   width="210mm"
   height="297mm"
   viewBox="0 0 744.09448819 1052.3622047"
   id="svg2"
   version="1.1"
   inkscape:version="0.91 r13725"
   sodipodi:docname="dunjun text.svg">
  <defs
     id="defs4" />
  <sodipodi:namedview
     id="base"
     pagecolor="#ffffff"
     bordercolor="#666666"
     borderopacity="1.0"
     inkscape:pageopacity="0.0"
     inkscape:pageshadow="2"
     inkscape:zoom="0.35"
     inkscape:cx="279.54956"
     inkscape:cy="520"
     inkscape:document-units="px"
     inkscape:current-layer="layer1"
     showgrid="false"
     inkscape:window-width="1366"
     inkscape:window-height="716"
     inkscape:window-x="-8"
     inkscape:window-y="-8"
     inkscape:window-maximized="1" />
  <metadata
     id="metadata7">
    <rdf:RDF>
      <cc:Work
         rdf:about="">
        <dc:format>image/svg+xml</dc:format>
        <dc:type
           rdf:resource="http://purl.org/dc/dcmitype/StillImage" />
        <dc:title></dc:title>
      </cc:Work>
    </rdf:RDF>
  </metadata>
  <g
     inkscape:label="Layer 1"
     inkscape:groupmode="layer"
     id="layer1">
    <path
       style="fill:#ff0000;fill-opacity:1;stroke:#370000;stroke-width:1.21820951;stroke-miterlimit:4;stroke-dasharray:none;stroke-dashoffset:0;stroke-opacity:1"
       id="path4144"
       d="m 109.2739,512.26424 c -4.01868,-8.1e-4 -7.94089,-0.43264 -11.888606,-1.14358 -0.72535,-0.20189 -1.46301,-0.36386 -2.17603,-0.60569 -1.437181,-0.48741 -2.803319,-1.16637 -4.230419,-1.68256 -2.367422,-0.85631 -4.732787,-1.36498 -7.202665,-1.81914 -4.853889,-1.00824 -9.096764,1.53022 -13.253857,3.6795 -1.930179,1.33955 -3.779929,2.8739 -5.39193,4.58925 -1.801907,1.91744 -1.678972,2.28228 -3.551137,4.14912 -0.656082,0.65422 -1.396141,1.21843 -2.09422,1.82764 -2.261557,2.61031 -5.225233,4.50975 -7.543209,7.05061 -0.983775,1.07837 -2.116716,2.76812 -2.945253,3.94241 -2.819314,5.12949 0.274505,-0.72034 -2.188853,4.65681 -0.924523,2.01809 -1.512331,2.65727 -2.37914,4.66216 -0.93969,2.17344 -1.038137,2.93587 -1.64398,5.26454 -0.284644,2.69784 -1.41616,6.23207 -1.151606,8.93827 0.184747,1.88978 1.949233,5.4851 2.663346,7.34369 1.187513,3.83287 0.287284,1.36655 1.872611,4.83764 0.329733,0.72195 0.546128,1.50048 0.952525,2.18222 0.371374,0.62298 1.873121,2.21111 1.360543,1.69799 -16.902569,-16.92052 -20.258836,-19.42686 -13.200454,-13.90959 4.589283,2.3939 9.896184,2.35403 14.947238,2.50736 4.771349,-0.0121 9.653738,0.50491 14.252317,-1.11373 0.811669,-0.28569 1.559121,-0.72857 2.338674,-1.09286 2.753104,-1.58061 5.721008,-2.75812 8.256042,-4.70623 2.165741,-1.66431 4.118271,-3.76209 6.137104,-5.60111 0.59713,-0.66181 1.245349,-1.28087 1.791388,-1.98543 0.760741,-0.98159 2.203697,-3.48856 2.8539,-4.49733 1.731382,-2.68623 3.629809,-5.2238 5.308529,-7.94616 3.721116,-5.18242 6.469946,-11.00543 8.398286,-17.07117 2.577276,-5.90767 5.315326,-11.73705 7.731266,-17.71509 2.98121,-6.28218 4.46574,-12.99222 5.28872,-19.84953 1.85026,-7.37429 2.95071,-14.86087 3.55279,-22.43037 0.43709,-6.914 0.40894,-13.84378 0.41446,-20.76787 -0.38479,-2.64913 0.43386,-6.35975 -0.0369,-8.93341 -0.15003,-0.82014 -0.49915,-1.61059 -0.94166,-2.31721 -0.32476,-0.5186 -1.73905,-1.72212 -1.31291,-1.28299 5.21908,5.37795 10.46141,10.73328 15.69212,16.09992 -1.10984,-0.009 -0.71402,-0.13589 -1.98402,0.96568 -2.82136,2.44716 -4.33207,5.46015 -5.66656,8.87849 -1.81752,3.35851 -3.30938,6.81677 -4.11622,10.56013 -0.21349,0.99055 -0.25382,2.01882 -0.53398,2.99261 -0.31934,1.11003 -0.83738,2.15298 -1.25607,3.22947 -2.38551,5.88129 -4.49405,11.90878 -6.07768,18.05833 -2.16168,4.9204 -3.77978,10.03056 -5.33223,15.16728 -1.66367,6.08943 -1.8785,12.43093 -2.08412,18.70233 -0.12574,6.05541 -0.0697,12.11218 -0.0658,18.16829 0.25804,1.92884 -0.22492,3.90226 0.0154,5.83102 0.4113,3.30047 3.09013,6.89408 5.1702,9.39446 5.64785,7.47821 2.42125,3.02693 -13.118946,-12.87426 -0.59565,-0.60947 1.19879,1.21321 1.83528,1.7799 1.87659,1.67074 3.958076,3.11404 5.990636,4.58387 2.65558,1.96514 5.88692,2.55924 8.93216,3.62254 1.48588,0.51881 2.94551,1.1102 4.42542,1.64577 2.95729,0.918 6.1615,2.05658 9.07952,0.33303 0.98898,-0.58415 2.72246,-2.52041 3.42787,-3.2556 0.51138,-0.74722 1.09767,-1.44835 1.53413,-2.24166 1.14225,-2.07612 1.48722,-3.60111 2.16207,-5.86794 1.09871,-3.6906 1.95258,-7.41036 3.1048,-11.08615 1.34046,-4.65673 4.45146,-8.43418 6.56089,-12.72219 1.18478,-2.40841 1.19392,-2.73051 2.01771,-5.24635 0.90968,-4.9924 2.24297,-9.89969 3.0313,-14.9174 -0.16945,-0.63433 -0.11264,-1.37908 -0.50835,-1.90302 -0.32822,-0.43457 -1.84271,-1.11116 -1.469,-0.71503 5.19877,5.51066 10.88398,10.55317 16.0116,16.13008 0.23271,0.2531 -0.69314,0.0607 -1.01562,0.17985 -1.97949,0.7316 -1.86517,0.90471 -3.44544,2.32385 -2.97345,4.33969 -5.02013,9.28708 -6.23231,14.3963 -1.02669,5.41824 -1.04006,10.95306 -1.11089,16.44679 0.27098,0.88361 1.14427,3.89594 1.60017,4.73474 0.36529,0.67206 0.95014,1.19995 1.39221,1.82421 0.4541,0.64126 0.81065,1.35094 1.2946,1.96999 0.91294,1.16775 1.97618,2.21252 2.89039,3.37928 -0.49579,-0.50352 -44.24511,-44.89233 3.08683,2.98767 4.96026,5.0177 -10.004,-9.95323 -14.91874,-15.01554 -0.49487,-0.50974 1.07625,0.93017 1.6503,1.34874 1.59078,1.15991 2.42089,1.53767 4.16053,2.48818 4.60141,1.96511 8.98627,4.23697 13.8503,5.48833 3.77923,0.48246 8.67366,2.31511 12.06875,-0.33192 0.52791,-0.41157 0.8983,-0.9926 1.34743,-1.48891 2.64673,-6.05652 4.62478,-12.4235 6.28413,-18.82031 1.68679,-6.91889 2.0296,-14.03838 2.19398,-21.12653 0.0149,-1.11406 0.19903,-2.23873 0.0448,-3.34216 -0.13265,-0.94904 -0.38724,-1.91891 -0.89384,-2.73231 -0.37874,-0.60812 -2.15293,-1.88531 -1.65895,-1.36644 5.1587,5.29324 10.3174,10.58649 15.47609,15.87973 -0.18981,-0.024 -0.3885,-0.13442 -0.56944,-0.0722 -0.48738,0.16757 -0.90665,0.49039 -1.35999,0.73559 -3.99286,3.41748 -4.1793,9.20777 -4.69584,14.08197 -1.17255,6.81338 -1.90821,13.67834 -2.32378,20.57566 -0.14017,3.60611 -0.39764,2.33264 0.55746,5.53609 0.24303,0.81514 0.41549,1.66209 0.78612,2.4277 0.34648,0.71573 0.81941,1.3732 1.34343,1.97129 0.50272,0.57379 2.24253,2.06678 1.7132,1.51744 -4.79439,-4.97557 -9.67518,-9.86716 -14.51278,-14.80074 2.79839,1.79701 5.44376,3.90712 8.4542,5.35544 1.03855,0.49965 3.47274,1.42118 4.56427,1.84488 4.47766,2.11854 9.31202,2.81894 14.19001,3.25309 2.59085,-0.004 5.27792,0.81728 7.72993,-0.41791 2.33261,-1.17507 3.73306,-3.55412 5.05285,-5.66402 2.89671,-6.57036 3.07805,-13.87077 3.29076,-20.93595 0.29779,-3.35599 -0.20765,-6.76246 0.042,-10.11578 0.23141,-3.10732 1.07542,-6.25215 1.65342,-9.30864 1.09302,-4.74847 4.39079,-8.32445 9.41369,-8.95878 1.00205,-0.12655 2.01862,0.0752 3.02793,0.11272 18.22586,8.82551 21.50502,20.17212 27.52879,35.55722 3.77145,7.37057 6.19708,15.27225 7.55954,23.41356 1.47763,12.80294 6.07426,13.85856 -16.98657,-9.85308 -0.44162,-0.45408 0.0936,-1.26357 0.121,-1.8964 0.0354,-0.8175 0.0449,-1.63591 0.0673,-2.45386 0.29293,-7.82757 -0.0435,-15.66974 0.49972,-23.48366 0.54924,-3.74329 0.43991,-7.59769 1.02367,-11.33452 0.46275,-2.96225 1.49883,-5.79848 2.62559,-8.5548 2.11385,-3.72525 5.69226,-6.28751 10.15725,-5.20493 3.01616,0.7313 3.82768,1.84475 6.17907,3.75769 6.04276,6.40454 12.3533,12.56661 18.12826,19.21362 0.99984,1.15082 2.18186,5.53409 2.7222,6.9058 0.39575,1.00466 0.95517,1.93912 1.35859,2.94071 0.98737,2.45136 1.28528,3.86229 1.97394,6.41456 0.94725,3.18779 1.94806,6.29016 3.16875,9.37914 0.841,2.12816 1.28217,3.85486 2.57497,5.76249 0.51229,0.75594 1.20211,1.37496 1.80315,2.06244 -27.31946,-28.66137 -17.70325,-15.03101 -10.20765,-12.40444 2.53398,0.88795 5.18359,1.10021 7.83277,1.35007 8.41702,0.71911 10.78173,-0.16903 17.058,-5.73258 4.59147,-4.64726 9.02215,-10.53628 11.88684,-16.43057 0.59646,-1.22727 1.05428,-2.51722 1.58143,-3.77583 1.96003,-4.31785 3.42646,-8.82287 5.07369,-13.25855 1.52501,-4.10659 3.18843,-8.11712 4.5766,-12.27601 1.76108,-5.80408 2.40723,-11.82971 2.56008,-17.86495 6.14292,5.3683 12.50385,10.4969 18.42877,16.10489 0.35804,0.3389 0.10084,0.98091 0.14164,1.47223 0.0731,0.88026 0.12508,1.76221 0.20009,2.64231 0.31941,3.74831 0.60665,7.41413 1.19282,11.1343 1.11827,4.66135 2.00436,9.38622 3.1915,14.03112 0.38753,1.51625 0.68911,3.06806 1.28078,4.51689 0.76305,1.86852 3.73712,6.62205 4.78123,8.344 2.56186,3.96398 5.13468,7.95993 7.16067,12.23475 0.58966,1.24419 0.9911,2.57348 1.60402,3.80639 1.1456,2.30448 2.55951,4.46602 3.7895,6.72659 1.43086,3.13227 3.15353,6.13317 4.38323,9.35727 0.38268,1.00333 0.62845,2.05551 1.01404,3.05771 0.78687,2.04516 1.72292,3.76549 2.71237,5.71724 4.56352,8.11976 8.66584,16.47627 11.98282,25.18091 4.10336,9.98479 6.71929,20.46049 8.74121,31.03726 0.75141,4.64459 1.11287,9.32991 1.3547,14.0236 0.0755,1.46445 0.25115,2.92906 0.20078,4.39458 -0.0872,2.53819 -0.701,4.92288 -1.22656,7.38493 -2.60196,7.05447 -6.07426,8.23171 -12.77697,10.12115 -5.31743,0.97019 -10.31017,3.85812 -15.83164,3.63334 -1.20314,-0.049 -2.38225,-0.35307 -3.57338,-0.5296 -4.61079,-1.83312 -9.21549,-4.32613 -12.74898,-7.89091 -18.68206,-18.84751 -14.75774,-10.93504 -19.6565,-22.11363 -0.35407,-1.13301 -0.82287,-2.23637 -1.06222,-3.39904 -0.34214,-1.66212 -0.84054,-7.60073 -0.94092,-9.16115 -0.31749,-4.93597 -0.40924,-9.89298 -0.52394,-14.83666 -0.0625,-3.35765 -0.33793,-4.89588 0.50185,-8.11793 1.09533,-4.20252 4.47565,-9.36992 6.76717,-13.10614 2.44184,-3.8418 5.42505,-7.27466 8.17068,-10.88584 1.31953,-1.73551 2.53436,-3.54867 3.84197,-5.29317 3.16748,-3.78588 5.16467,-8.35555 7.92537,-12.42232 1.73537,-2.55635 2.73233,-3.58492 4.72631,-5.90279 3.64723,-4.19056 8.40525,-7.16231 12.32717,-11.07167 2.61915,-2.61075 3.30545,-3.71559 5.55406,-6.65717 4.49609,-7.14792 7.31465,-14.94764 9.03165,-23.17605 1.29649,-7.31105 1.4445,-14.74971 1.51083,-22.15352 0.0151,-1.26857 0.17871,-2.54412 0.045,-3.80572 -0.39604,-3.73864 -2.2462,-7.22123 -3.59314,-10.66492 -1.94393,-4.96994 -0.42829,-1.91212 -2.88887,-6.31746 -0.58127,-0.52488 -2.28963,-2.13629 -1.7438,-1.57467 5.20485,5.28226 10.40969,10.56452 15.61453,15.84678 -0.22716,-0.3423 -0.44704,-0.76812 -0.35731,0.7896 0.0892,1.54845 0.93243,3.77554 1.36776,5.13363 0.3274,1.35534 0.5829,2.73011 0.98222,4.06604 0.43919,1.46934 1.04325,2.88459 1.53004,4.33885 2.05775,6.14737 4.09148,12.2827 6.39518,18.34499 1.33373,3.89939 2.62241,7.89373 5.26923,11.14112 0.6551,0.80374 2.9202,2.94502 2.20188,2.19726 -14.45694,-15.04925 -19.97524,-17.89003 -11.8522,-13.30009 5.16065,2.07243 10.80675,1.9781 16.2781,1.99887 1.75524,-0.004 3.60471,0.21339 5.27438,-0.55801 3.35017,-1.54779 4.25086,-5.72545 5.04119,-8.89216 1.32473,-7.94334 1.19286,-16.03401 1.14487,-24.05985 -0.0245,-3.9291 0.39114,-7.77395 -0.89015,-11.56989 -0.36922,-1.09385 -0.81635,-2.17729 -1.43415,-3.15255 -0.4477,-0.70672 -1.14699,-1.21818 -1.72047,-1.82727 5.1175,5.25444 10.235,10.50888 15.35251,15.76332 -0.0243,-0.0556 -0.0435,-0.22006 -0.073,-0.16694 -1.06878,1.92929 -1.92038,8.55053 -1.76248,10.53847 0.10669,1.34329 0.60783,2.6256 0.91176,3.9384 2.17638,8.63466 6.57405,15.69152 12.55098,22.17749 -25.19934,-25.79604 -12.71514,-9.82783 -2.31411,-8.82052 0.75963,0.0735 1.52305,-0.10084 2.28457,-0.15126 0.69639,-0.36946 1.46301,-0.62945 2.08918,-1.10838 4.0017,-3.06075 6.74649,-10.47666 8.59528,-15.04095 0.36569,-1.11059 0.77061,-2.20904 1.09707,-3.3318 1.02412,-3.52217 0.51841,-3.00363 1.90422,-6.43658 1.07645,-2.66662 2.49807,-5.20431 3.61683,-7.85936 2.03112,-4.41342 1.45648,-9.41988 2.84537,-13.97494 0.27889,-0.91465 0.71012,-1.77571 1.06518,-2.66356 1.95103,-2.8134 5.02488,-5.98348 8.88211,-5.2006 0.9747,0.19783 1.9714,0.59572 2.69727,1.27563 6.40728,6.00151 12.3908,12.43999 18.58621,18.65999 0.60201,1.14509 1.25473,2.26492 1.80603,3.43527 1.27358,2.70364 1.96611,4.67907 2.76969,7.55515 0.51904,1.85765 1.08406,5.09156 1.93371,6.91946 0.27497,0.59157 0.78671,1.04086 1.18007,1.5613 -5.56576,-5.46821 -11.13153,-10.9364 -16.69729,-16.40461 -0.0917,-0.0953 -0.27763,-0.15366 -0.27499,-0.28585 0.0133,-0.66845 0.23596,-1.31678 0.32016,-1.98004 0.13072,-1.02967 0.24274,-2.06216 0.32437,-3.09689 0.23134,-2.9328 0.23511,-4.5886 0.31265,-7.54364 -0.27503,-3.88004 0.48897,-7.5857 1.50075,-11.29641 0.73013,-2.67783 1.00496,-4.01952 2.3745,-6.4277 0.4944,-0.86935 1.14686,-1.63875 1.72029,-2.45813 0.72285,-0.63731 1.35127,-1.40132 2.16855,-1.91194 5.65147,-3.53087 11.79542,2.00991 15.96848,5.31032 6.28692,6.39859 12.83046,12.55476 18.86074,19.19577 1.03826,1.1434 1.56089,2.66826 2.2484,4.05125 3.41984,6.87918 4.56396,13.26836 5.69643,20.78244 1.11623,9.10698 2.28467,18.43219 5.40934,27.11749 0.5258,1.46153 1.18356,2.87216 1.77534,4.30825 4.59887,6.59044 16.12228,20.16656 -8.30097,-6.98486 -0.79353,-0.88216 1.86974,1.46946 2.87889,2.09358 2.35691,1.45766 3.46129,1.69817 6.03786,2.61419 3.0992,0.70317 6.32368,1.52355 9.53009,1.51964 4.04368,-0.005 7.95609,-1.25702 11.80525,-2.32291 8.19551,-2.73667 16.11692,-7.34022 22.62544,-13.04005 1.53937,-1.34808 2.9529,-2.8334 4.42934,-4.2501 7.5323,-8.64742 13.57841,-18.41421 19.8199,-27.99186 4.56069,-6.9984 6.29437,-9.55671 10.9452,-16.52914 6.6122,-11.40382 15.75921,-21.23747 21.99071,-32.83287 1.65807,-4.11392 0.77966,-2.1357 2.61632,-5.94303 0,0 16.94525,15.91577 16.94525,15.91577 l 0,0 c -1.9653,3.62992 -0.96284,1.70128 -2.98531,5.79733 -2.32625,3.56416 -2.33056,3.75448 -5.1741,7.26635 -3.65771,4.51746 -4.48358,4.992 -8.2565,9.83257 -1.70784,2.19112 -3.32672,4.45061 -4.9458,6.70812 -1.7941,2.50154 -3.52862,5.0453 -5.29296,7.56795 -1.62066,2.46428 -9.23009,14.01215 -10.84755,16.56045 -6.25555,9.85555 -12.02949,20.03696 -19.238,29.25777 -3.4256,3.42331 -5.20773,5.44333 -9.04723,8.36139 -5.4041,4.10718 -12.00091,7.72987 -18.31526,10.18307 -3.71383,1.18477 -8.31213,2.77836 -12.21003,3.112 -3.30099,0.28254 -6.70356,-0.61694 -9.92471,-1.13944 -2.95363,-0.82784 -3.82035,-0.91957 -6.59778,-2.31623 -11.40321,-5.73423 -20.05824,-16.50465 -26.23196,-27.50605 -3.59129,-10.14931 -5.38148,-20.7973 -6.54139,-31.48247 -1.01198,-5.52434 -2.07361,-10.85495 -4.36836,-16.02253 -3.89578,-8.77302 -14.37983,-18.43943 8.24115,4.4245 -2.57014,-2.19359 -9.20805,-8.77842 -13.13823,-6.93982 -0.7028,0.32878 -1.20677,0.9756 -1.81015,1.46339 -0.50569,0.68283 -1.08727,1.31553 -1.51708,2.04849 -2.88727,4.92373 -3.38464,11.28197 -3.44901,16.8413 -0.0409,1.50819 -0.16421,6.26037 -0.22667,7.77121 -0.0451,1.09008 -0.14685,4.8528 -0.59573,6.1205 -0.27836,0.78616 -0.61115,2.63661 -1.28579,2.14629 -6.53011,-4.74594 -12.0141,-10.78547 -18.02116,-16.1782 -1.87603,-6.48926 -3.11503,-13.28715 -7.5816,-18.63648 4.69185,4.56674 9.33039,9.1889 14.07554,13.70022 0.64804,0.61611 -1.51989,-2.70587 -3.57099,-2.64432 -2.03725,0.0611 -3.79192,2.30613 -4.84,3.73111 -0.30002,0.76124 -0.6736,1.49745 -0.90006,2.28372 -1.35902,4.71841 -0.70808,9.92914 -3.07717,14.41043 -1.15868,2.52157 -2.60744,4.98065 -3.64364,7.55097 -0.9821,2.43613 -1.15572,3.88789 -1.99059,6.39822 -0.37796,1.13649 -0.83868,2.24378 -1.25803,3.36567 -2.22433,5.15202 -0.78728,1.96466 -3.24642,7.08612 -2.1399,4.4566 -4.27511,8.6815 -8.86611,11.05865 -0.98173,0.18019 -1.94708,0.53324 -2.94519,0.54056 -1.02418,0.007 -2.0315,-0.27856 -3.0322,-0.4967 -12.25773,-2.67202 -19.32855,-13.42533 -27.83282,-22.23622 -5.55218,-6.80851 -9.91177,-14.36542 -11.71674,-23.06474 -0.21768,-1.49967 -0.58809,-2.98502 -0.65301,-4.49901 -0.056,-1.30601 0.17367,-2.60891 0.29237,-3.91073 0.2534,-2.77899 0.28953,-6.68382 2.3325,-8.93131 0.55948,-0.6155 1.37247,-0.94008 2.0587,-1.41013 5.96413,5.75571 12.09035,11.34806 17.89239,17.26712 0.53206,0.54279 0.75371,1.32644 1.02831,2.03517 1.91392,4.93982 1.75608,10.07544 1.67264,15.28214 -0.0838,8.21796 -0.0501,16.49101 -1.37186,24.62472 -0.30374,1.15163 -0.50978,2.33357 -0.91123,3.45489 -1.39259,3.8897 -4.25497,7.53811 -8.54298,8.2279 -0.96302,0.15492 -1.95066,0.0236 -2.92599,0.0354 -5.69295,0.0112 -11.479,0.18138 -17.02998,-1.29116 -10.4921,-4.14999 -2.99178,-0.80305 -21.22687,-18.91094 -3.61902,-3.59378 -4.6035,-9.09132 -6.4696,-13.60613 -3.31523,-8.98939 -6.35388,-18.09481 -9.19486,-27.24322 -0.55519,-2.34981 -1.31162,-4.25929 -0.74845,-6.71516 0.41496,-1.8096 2.41918,-3.93962 3.01527,-3.46469 15.34008,12.22222 13.9842,10.35956 19.11604,18.72076 3.07586,6.81546 6.06843,13.95308 5.64571,21.5751 -0.14586,7.49397 -0.33937,15.01776 -1.98423,22.367 -2.03464,8.51203 -4.81678,16.51423 -9.78144,23.8159 -2.84069,3.74497 -5.65534,6.93358 -9.14102,10.10593 -2.13147,1.93988 -4.02987,3.29709 -6.09769,5.29196 -0.87884,0.84783 -1.67624,1.77621 -2.51437,2.66431 -1.72879,1.96636 -3.06389,3.36093 -4.53816,5.54369 -2.79808,4.14274 -4.70796,8.86102 -7.91192,12.73249 -3.93957,5.3402 -8.04627,10.54372 -11.96109,15.90393 -2.8487,4.91338 -0.88837,1.44834 -3.52983,6.32995 -0.51278,0.94768 -1.13329,1.84265 -1.55309,2.83503 -1.46455,3.46208 -1.772,7.16609 -1.60068,10.87998 0.1192,9.00861 -0.0403,18.42311 3.52294,26.86293 5.1018,8.52879 2.53366,3.65782 -12.19073,-10.58213 -0.86823,-0.83965 1.6737,1.74665 2.58637,2.53776 2.25719,1.95657 3.62121,2.71907 6.14698,4.27035 0.99233,0.60945 1.99407,1.20341 2.99111,1.80513 2.25561,0.57678 3.9955,1.24335 6.37324,0.98639 4.17698,-0.4514 7.86292,-3.02497 12.01622,-3.57581 5.60806,-1.63994 9.03589,-1.9812 11.19653,-8.15294 0.4877,-2.29466 1.02822,-4.35894 1.10593,-6.72589 0.19769,-6.02182 -0.89685,-12.0818 -1.59593,-18.03297 -1.89662,-10.51865 -4.81292,-20.80595 -8.97133,-30.66945 -3.57966,-8.801 -7.90686,-17.20861 -12.62145,-25.45412 -2.78276,-5.93143 -4.77747,-12.20749 -8.01666,-17.93492 -4.06223,-7.52612 -7.36888,-15.44626 -12.30408,-22.48656 -1.68309,-3.00898 -3.25409,-5.53864 -4.43153,-8.81413 -2.17653,-6.05482 -2.59362,-12.67667 -4.42095,-18.8286 -0.61967,-3.83767 -0.96274,-7.71477 -1.62979,-11.54194 -1.89306,-10.8614 -7.5226,-11.37405 17.20766,10.68175 -0.88677,1.71494 -0.86429,3.94734 -1.12915,5.76926 -0.56761,3.90438 -1.39454,7.76351 -2.56861,11.53328 -3.19043,8.55969 -6.77083,16.9729 -9.80351,25.59544 -0.58035,1.3276 -1.08544,2.69071 -1.74106,3.9828 -1.16955,2.30491 -3.07604,5.10157 -4.49605,7.24402 -2.31373,3.49088 -4.68523,6.91879 -7.81699,9.75037 -3.56817,3.42216 -7.05758,6.64271 -12.18237,7.35503 -0.87105,0.12106 -5.01201,-0.0211 -5.99246,-0.0468 -16.90853,-0.82395 -15.96161,-4.9188 -31.32688,-20.7914 -3.36314,-5.42971 -5.02088,-11.64146 -6.8662,-17.71023 -0.98763,-3.13189 -2.1554,-6.13953 -3.37195,-9.18865 -0.42742,-1.07125 -0.78425,-2.17351 -1.28306,-3.21345 -3.57835,-7.46027 -9.56235,-10.60322 12.03183,10.02801 -0.77484,-0.89375 -1.43734,-1.89893 -2.32454,-2.68128 -0.77798,-0.68604 -1.69431,-1.21093 -2.62001,-1.67891 -3.74841,-1.89497 -5.88135,-0.26299 -7.79031,3.03506 -0.98627,2.55486 -1.93816,5.17176 -2.39573,7.88689 -0.61672,3.65949 -0.66586,7.41624 -1.18367,11.08849 -0.44482,7.93007 -0.0767,15.8676 0.0756,23.80376 0.0131,0.86547 0.0269,1.73092 0.0394,2.5964 0.0107,0.73851 0.64713,2.62209 0.0305,2.21556 -21.95561,-14.47431 -17.1397,-7.51189 -18.86462,-20.49864 -1.46327,-7.96633 -4.02719,-15.57563 -7.59534,-22.86138 -1.58234,-4.09386 -3.0402,-8.27055 -5.21735,-12.10106 -0.59737,-1.05102 -2.88855,-3.83651 -1.98076,-3.03812 9.00512,7.92001 19.40676,19.57644 12.34888,11.72998 -0.75585,-0.27966 -1.46218,-0.80859 -2.26751,-0.83897 -0.86954,-0.0328 -1.70422,0.37249 -2.52615,0.65815 -3.03475,1.05473 -4.42559,3.39046 -5.11899,6.42291 -0.57861,2.94538 -1.25924,5.9175 -1.43198,8.92406 -0.19265,3.35306 0.0647,6.73671 -0.21599,10.08919 -0.4178,7.44997 -0.71163,15.14235 -3.90947,22.01862 -2.17487,3.33383 -4.73296,7.12417 -8.96903,7.98722 -0.32105,0.0654 -5.21606,-0.12601 -5.58191,-0.13892 -4.99699,-0.25691 -10.07721,-0.62978 -14.71354,-2.68327 -2.32344,-1.04806 -4.76222,-1.66138 -7.02879,-2.83659 -4.42087,-2.29218 -0.0811,-0.20439 -4.21408,-2.78526 -0.73986,-0.46201 -1.54944,-0.80163 -2.32416,-1.20244 -6.13364,-5.98204 -12.36182,-11.86863 -18.40089,-17.94611 -3.20446,-3.22485 -3.28154,-8.5227 -2.98314,-12.69333 0.5241,-6.88674 1.52174,-13.70956 2.46833,-20.54822 0.54493,-5.71517 1.12106,-12.00949 5.66967,-16.05829 0.21952,-0.16008 3.24461,-2.47485 3.55731,-2.22811 7.32211,5.77754 18.85861,11.55463 19.40547,21.95812 0.0586,1.11489 -0.0596,2.23207 -0.0893,3.3481 -0.33089,7.1949 -0.68683,14.45123 -2.63949,21.42697 -1.84835,6.76421 -3.59287,13.68445 -6.6763,20.00161 -0.62492,0.66561 -1.16072,1.42787 -1.87476,1.99684 -4.00328,3.18992 -8.78879,1.97054 -13.40802,1.42264 -2.55864,-0.50868 -4.99009,-1.04787 -7.40143,-2.07399 -0.76344,-0.32488 -1.50249,-0.70433 -2.25373,-1.05649 -0.70206,-0.39935 -1.36633,-0.87403 -2.10619,-1.19803 -0.8009,-0.35074 -1.66188,-0.544 -2.49282,-0.81599 -10.6731,-4.5204 -14.79761,-11.54578 -24.29902,-21.22411 -12.809,-13.04751 60.68294,60.71049 -2.98065,-3.13339 -3.10564,-3.86283 -5.80637,-7.84228 -5.9676,-12.99165 0.0739,-5.65652 0.16523,-11.36711 1.4131,-16.91123 1.47002,-5.47834 3.87201,-10.70304 7.07585,-15.38771 0.65583,-0.66835 1.24395,-1.41067 1.9675,-2.00506 0.55043,-0.45217 1.21673,-0.74112 1.82557,-1.1109 0.63282,-0.38436 1.30748,-1.5963 1.89941,-1.15153 6.57524,4.94065 12.4746,10.73355 18.4183,16.41829 0.40843,0.39063 0.39229,1.07153 0.45547,1.63315 0.0871,0.77444 -0.006,1.55866 -0.009,2.33799 -0.9062,5.08349 -2.2174,10.09333 -3.41897,15.10719 -1.04916,2.81229 -0.93908,2.80945 -2.36999,5.46735 -2.17979,4.04894 -5.24582,7.63425 -6.42846,12.17186 -2.03235,6.85356 -2.83447,14.37194 -7.20848,20.24978 -2.59398,2.88215 -5.27225,5.63853 -9.45792,5.78402 -0.98893,0.0343 -3.98793,-0.74788 -4.95922,-0.9801 -2.72686,-0.83418 -1.90907,-0.50739 -4.49449,-1.59607 -0.73005,-0.30741 -1.42329,-0.71156 -2.17982,-0.94638 -2.40845,-0.74756 -5.02446,-0.8742 -7.20888,-2.32511 -10.5965,-6.96636 -19.945456,-16.14927 -27.558177,-26.24903 -1.517757,-2.32476 -3.072481,-4.68428 -3.738872,-7.42908 -0.708703,-2.91906 -0.344909,-5.91295 -0.425444,-8.87408 -0.0145,-6.05595 -0.01093,-12.11447 0.208904,-18.16717 0.282312,-6.46509 0.634477,-13.01106 2.331402,-19.2849 1.570685,-5.09248 3.162393,-10.16045 5.378836,-15.01804 1.718875,-6.16087 3.881585,-12.2008 6.266265,-18.13405 0.32085,-1.00683 0.695986,-1.99795 0.962546,-3.02049 1.30443,-5.00389 -0.0992,-1.22673 1.46355,-6.21119 0.86622,-2.76281 1.00964,-2.7818 2.24076,-5.25585 0.40703,-0.81798 0.80949,-1.63822 1.21423,-2.45734 2.06748,-4.92587 4.89307,-10.00248 9.73864,-12.64181 6.06878,5.60194 12.31117,11.02145 18.20633,16.80582 0.42094,0.41303 0.47321,1.0867 0.61282,1.65967 0.92709,3.80507 0.26291,7.75637 0.42413,11.62265 -0.0587,6.89993 -0.22118,13.80403 -0.78833,20.68357 -0.65957,7.62147 -1.81907,15.14678 -3.46503,22.62016 -0.8548,7.05025 -2.81522,13.79469 -5.66386,20.31005 -2.32711,5.98753 -5.13354,11.76111 -7.54705,17.71044 -2.15122,6.17047 -5.05549,12.05994 -8.81419,17.42093 -4.57374,7.34947 1.02393,-1.55437 -3.56207,5.46242 -1.60045,2.44877 -2.93192,5.1307 -4.769686,7.41954 -0.59769,0.74441 -1.29704,1.40117 -1.94556,2.10175 -2.08247,1.96874 -4.207491,4.04507 -6.501448,5.76953 -2.61479,1.96565 -2.829185,1.77428 -5.640085,3.37564 -0.929106,0.5293 -1.829837,1.10693 -2.744755,1.6604 -2.747361,1.34936 -5.666936,2.51475 -8.744656,2.89512 -2.847049,0.35184 -5.817771,-0.22946 -8.674133,0.0177 -5.257965,-0.0407 -10.649758,0.0257 -15.718967,-1.54955 -11.954878,-5.2262 -19.911732,-16.19007 -23.618536,-28.06409 -0.495338,-1.40658 -1.370544,-3.71973 -1.635551,-5.18395 -0.730786,-4.03784 0.433785,-8.15429 1.146845,-12.10344 0.652001,-2.4013 0.848523,-3.49427 1.844559,-5.75422 0.675996,-1.53381 1.60311,-2.94657 2.312696,-4.46514 0.405709,-0.86824 0.704128,-1.78528 1.13171,-2.64295 0.412357,-0.82716 0.922482,-1.60184 1.383727,-2.40276 1.289118,-1.87145 1.70776,-2.6327 3.253851,-4.28289 2.383375,-2.54382 5.310821,-4.53749 7.644053,-7.14238 4.117964,-3.44363 6.789959,-8.08683 11.357846,-11.01728 3.064642,-1.57244 8.373414,-4.53068 11.74084,-4.82098 0.896293,-0.0773 1.791793,0.1635 2.687689,0.24524 4.730058,0.59501 9.366244,1.59945 13.560423,3.97811 1.997044,0.33525 4.254382,0.98567 6.248001,1.15764 1.636408,0.14115 3.31257,-0.18704 4.949286,-0.19963 0,0 15.656141,18.33099 15.656141,18.33099 z"
       inkscape:connector-curvature="0" />
    <path
       style="fill:#ff0000;fill-opacity:1;stroke:#370000;stroke-width:1.21820951;stroke-miterlimit:4;stroke-dasharray:none;stroke-dashoffset:0;stroke-opacity:1"
       id="path4148"
       d="m 374.37429,422.90954 c -2.88084,1.46041 -5.74741,3.07081 -8.22441,5.16653 -1.21265,1.02599 -3.47196,3.42237 -4.53683,4.52318 -3.24837,3.99856 -1.61426,1.88038 -4.87636,6.37447 0,0 -16.36037,-15.78425 -16.36037,-15.78425 l 0,0 c 3.20167,-4.83051 1.57439,-2.54433 4.85426,-6.87808 3.68943,-4.00438 7.67332,-7.72323 12.33776,-10.58392 0,0 16.80595,17.18207 16.80595,17.18207 z"
       inkscape:connector-curvature="0" />
  </g>
</svg>
